<?xml version="1.0" encoding="utf-8"?>
<!-- Generator: Adobe Illustrator 19.0.0, SVG Export Plug-In . SVG Version: 6.00 Build 0)  -->
<svg version="1.1" id="layer" xmlns="http://www.w3.org/2000/svg" xmlns:xlink="http://www.w3.org/1999/xlink" x="0px" y="0px"
	 viewBox="-153 -46 652 652" style="enable-background:new -153 -46 652 652;" xml:space="preserve">
<style type="text/css">
	.st0{fill:#009992;}
</style>
<g id="Symbols">
	<g id="header_x2F_headerv3" transform="translate(-178.000000, -61.000000)">
		<g id="headerv3">
			<g id="header_x2F_menu">
				<g id="Group-5">
					<g id="Group-11" transform="translate(178.000000, 61.000000)">
						<g id="logo-inrae">
							<g id="Combined-Shape">
								<path class="st0" d="M-104.1,202.2c1,0,1.9,0.8,1.9,1.8v142.2c0,1-0.8,1.8-1.9,1.8h-25.8c-1,0-1.9-0.8-1.9-1.8V204
									c0-1,0.8-1.8,1.9-1.8H-104.1z M42,202.2c1,0,1.9,0.8,1.9,1.8v142.2c0,1-0.8,1.8-1.9,1.8H16.1c-0.6,0-1.2-0.3-1.6-0.8
									l-62.9-95.7v94.7c0,1-0.8,1.8-1.9,1.8h-25.9c-1,0-1.9-0.8-1.9-1.8V204c0-1,0.8-1.8,1.9-1.8h25.9c0.6,0,1.2,0.3,1.6,0.8
									l63.1,96.1V204c0-1,0.8-1.8,1.9-1.8H42z M150.2,286.6l32.5,57.5c0.1,0.3,0.2,0.6,0.2,0.8v1.3c0,1-0.8,1.8-1.9,1.8h-27.7
									c-0.7,0-1.3-0.4-1.6-1l-29.3-53.8H96.5v52.9c0,1-0.8,1.8-1.9,1.8H68.8c-1,0-1.9-0.8-1.9-1.8V204c0-1,0.8-1.8,1.9-1.8h52.3
									c17.5,0,31.3,3.9,40.9,11.5c9.7,7.7,14.7,18.9,14.7,33.3c0,9.9-2.5,18.2-7.6,24.9C164.6,278.1,158.2,283.1,150.2,286.6z
									 M140.4,264c4.5-3.9,6.7-9.1,6.7-15.9c0-7.1-2.1-12.6-6.2-16.4c-4.2-3.8-10.6-5.8-19-6H96.5v44.1h24.7
									C129.4,269.8,135.9,267.9,140.4,264z M275.4,298.4l-21.5-58.8l-18.2,50l-3.4,9.4h43.4L275.4,298.4z M390.2,225.7
									c-28.6,0-51.9,22.3-51.9,49.6c0,4.5,0.6,9,1.9,13.4c29.3-11.7,53.6-32.7,68.8-59.5C403,226.9,396.7,225.7,390.2,225.7z
									 M468.2,275.3c0,41.1-35,74.5-78,74.5c0,0-0.1,0-0.1,0v0c-16.1,0-31.6-4.7-44.7-13.6c-7.2-4.8-13.4-10.7-18.5-17.5
									c-0.1-0.2-0.2-0.3-0.3-0.5c-0.1,0-0.2,0-0.4,0.1c-4.1,1-8.3,1.8-12.5,2.5l9.8,24.8c0.2,0.5,0.1,1.2-0.2,1.6
									c-0.3,0.5-0.9,0.8-1.5,0.8h-27c-0.8,0-1.5-0.5-1.8-1.2l-8.8-24l-0.3-0.8h-60.3l-9,24.7c-0.3,0.7-1,1.2-1.8,1.2h-26.9
									c-0.6,0-1.2-0.3-1.5-0.8c-0.3-0.5-0.4-1.1-0.2-1.6l56.2-142.2c0.3-0.7,1-1.1,1.7-1.1h23.2c0.8,0,1.5,0.5,1.7,1.1l37.4,94.4
									c3.6-0.4,7.2-1,10.7-1.7c-2.1-6.7-3.1-13.7-3.1-20.8c0-15.6,5-30,13.6-41.9c14-19.6,37.6-32.5,64.3-32.5c0,0,0,0,0,0
									c0,0,0,0,0,0c10.8,0,21.2,2.1,31,6.2c6.9,2.9,13.3,6.7,19.1,11.3c0.6,0.5,0.8,1.3,0.5,2c-2.8,7.1-6.1,14.1-9.9,20.7
									c-17.4,30.4-45.1,54.7-78.2,68.6c0.2,0.2,0.4,0.4,0.6,0.6c6.1,5.8,13.6,10.1,21.9,12.5c4.8,1.4,9.8,2.1,14.9,2.1
									c26.9,0,49.1-19.6,51.7-44.7c0.1-0.3,0.1-0.6,0.1-1c0.3-5.8,1.3-7.4,2.7-9.7l15.5-23.2c0.3-0.3,1-0.9,1.8,0.1
									C466,255.4,468.2,265.3,468.2,275.3z"/>
							</g>
						</g>
					</g>
				</g>
			</g>
		</g>
	</g>
</g>
</svg>
